<svg xmlns="http://www.w3.org/2000/svg" viewBox="0 0 512 512">
  <defs>
    <linearGradient id="bgGrad" x1="0%" y1="0%" x2="100%" y2="100%">
      <stop offset="0%" stop-color="#242533" />
      <stop offset="100%" stop-color="#141419" />
    </linearGradient>
    <linearGradient id="redBarGrad" x1="0%" y1="0%" x2="100%" y2="0%">
      <stop offset="0%" stop-color="#FF5252" />
      <stop offset="100%" stop-color="#D32F2F" />
    </linearGradient>
  </defs>

  <rect x="16" y="16" width="480" height="480" rx="108" fill="url(#bgGrad)" stroke="#353846" stroke-width="8"/>

  <g fill="#E6E8F0">
    <path d="M 256,100 C 170,100 135,160 135,235 C 135,275 155,305 180,325 L 180,380 C 180,395 195,405 210,405 L 302,405 C 317,405 332,395 332,380 L 332,325 C 357,305 377,275 377,235 C 377,160 342,100 256,100 Z" />
  </g>

  <ellipse cx="205" cy="225" rx="26" ry="32" fill="#1E1F28" transform="rotate(-6 205 225)"/>

  <path d="M 148,165 L 364,285" stroke="#E53935" stroke-width="7" stroke-linecap="round"/>
  <ellipse cx="307" cy="225" rx="30" ry="34" fill="#141419" stroke="#E53935" stroke-width="6"/>

  <path d="M 256,260 L 246,285 C 246,290 252,295 256,295 C 260,295 266,290 266,285 Z" fill="#1E1F28"/>

  <line x1="230" y1="365" x2="230" y2="405" stroke="#1E1F28" stroke-width="7" stroke-linecap="round"/>
  <line x1="256" y1="365" x2="256" y2="405" stroke="#1E1F28" stroke-width="7" stroke-linecap="round"/>
  <line x1="282" y1="365" x2="282" y2="405" stroke="#1E1F28" stroke-width="7" stroke-linecap="round"/>

  <g>
    <rect x="75" y="300" width="362" height="74" rx="12" fill="url(#redBarGrad)"/>
    <g fill="#FFFFFF" font-family="-apple-system, BlinkMacSystemFont, 'Segoe UI', Roboto, 'JetBrains Mono', monospace" font-weight="900" font-size="44" letter-spacing="14">
      <text x="96" y="354">#$!%&amp;*</text>
    </g>
  </g>
</svg>
